<!-- Generator: Adobe Illustrator 25.2.0, SVG Export Plug-In  -->
<svg version="1.1" xmlns="http://www.w3.org/2000/svg" xmlns:xlink="http://www.w3.org/1999/xlink" x="0px" y="0px" width="213.2px"
	 height="399.5px" viewBox="0 0 213.2 399.5" style="overflow:visible;enable-background:new 0 0 213.2 399.5;"
	 xml:space="preserve">
<style type="text/css">
	.st0{fill:#C9954A;}
	.st1{fill:#93391F;}
	.st2{fill:#0B0857;}
</style>
<defs>
</defs>
<g id="Grupo_260_1_" transform="translate(0 481.024)">
	<g id="Grupo_245_1_" transform="translate(42.079 -113.723)">
		<path id="Caminho_175_1_" class="st0" d="M0,1.1l0.1,0.7l6-1.1L6,0L0,1.1z"/>
	</g>
	<g id="Grupo_246_1_" transform="translate(172.524 -113.723)">
		<path id="Caminho_176_1_" class="st0" d="M0,1.1l0.1,0.7l6-1.1L6,0L0,1.1z"/>
	</g>
	<g>
		<g id="Grupo_250_1_" transform="translate(0 -481.024)">
			<g id="Grupo_247_1_" transform="translate(0 368.829)">
				<path id="Caminho_177_1_" class="st1" d="M3.6,30.7c2.5,0,3.7-1.5,3.7-5v-0.8c0-7.4-4.4-12.4-4.4-19.3V4.1c0-1,0.3-1.4,0.8-1.4
					c0.5,0,0.8,0.4,0.8,1.4v5.5h2.8V5c0-3.5-1-5-3.6-5C1.2,0,0,1.5,0,5v0.8c0,7.4,4.4,12.4,4.4,19.3v1.5c0,1-0.3,1.4-0.8,1.4
					c-0.5,0-0.8-0.4-0.8-1.4v-5.5H0v4.6C0,29.2,1,30.7,3.6,30.7 M15.1,30.4h2.8L15.9,0.3h-4.6L9.4,30.4h2.6l0.6-12.7h1.8L15.1,30.4z
					 M12.9,15.2l0.6-12.1h0.3l0.6,12.1H12.9z M23.7,30.7c2.5,0,3.7-1.5,3.7-5V0.3h-2.8v26.3c0,1-0.3,1.4-0.8,1.4
					c-0.5,0-0.8-0.4-0.8-1.4V0.3h-2.8v25.4C20.1,29.2,21.1,30.7,23.7,30.7 M33.9,0.3h-3.4v30.2h3.3c2.8,0,4-1.5,4-4.8V5.1
					C37.8,1.7,36.8,0.3,33.9,0.3 M35,26.2c0,1.2-0.3,1.5-1.2,1.5h-0.5V2.9h0.5c0.8,0,1.2,0.4,1.2,1.5V26.2z M45.7,30.4h2.8L46.6,1.2
					H42L40,30.4h2.6l0.6-12.4h1.8L45.7,30.4z M43.5,15.6l0.6-11.7h0.3l0.6,11.7H43.5z M55.9,0.3l-1.3,26.5h-0.3L53,0.3h-2.9
					l1.9,30.2h4.6l1.9-30.2H55.9z M64.1,27.7V15.1h2.6v-2.7h-2.6V2.9h2.8V0.3h-5.6v30.2h5.8v-2.7H64.1z M69.6,30.4h2.8V0.3h-2.8
					L69.6,30.4z M79.1,30.7c2.5,0,3.7-1.5,3.7-5v-0.8c0-7.4-4.4-12.4-4.4-19.3V4.1c0-1,0.3-1.4,0.8-1.4c0.5,0,0.8,0.4,0.8,1.4v5.5
					h2.8V5c0-3.5-1-5-3.6-5c-2.5,0-3.7,1.5-3.7,5v0.8c0,7.4,4.4,12.4,4.4,19.3v1.5c0,1-0.3,1.4-0.8,1.4c-0.5,0-0.8-0.4-0.8-1.4v-5.5
					h-2.8v4.6C75.5,29.2,76.6,30.7,79.1,30.7 M93.4,27.7V15.1H96v-2.7h-2.6V2.9h2.8V0.3h-5.6v30.2h5.8v-2.7H93.4z M106.9,30.7
					c2.5,0,3.7-1.5,3.7-5v-0.8c0-7.4-4.4-12.4-4.4-19.3V4.1c0-1,0.3-1.4,0.8-1.4c0.5,0,0.8,0.4,0.8,1.4v5.5h2.8V5c0-3.5-1-5-3.6-5
					c-2.5,0-3.7,1.5-3.7,5v0.8c0,7.4,4.4,12.4,4.4,19.3v1.5c0,1-0.3,1.4-0.8,1.4c-0.5,0-0.8-0.4-0.8-1.4v-5.5h-2.8v4.6
					C103.3,29.2,104.3,30.7,106.9,30.7 M117.1,30.7c2.5,0,3.7-1.5,3.7-5V0.3h-2.8v26.3c0,1-0.3,1.4-0.8,1.4c-0.5,0-0.8-0.4-0.8-1.4
					V0.3h-2.8v25.4C113.5,29.2,114.5,30.7,117.1,30.7 M127.3,30.7c2.5,0,3.7-1.5,3.7-5v-0.8c0-7.4-4.4-12.4-4.4-19.3V4.1
					c0-1,0.3-1.4,0.8-1.4c0.5,0,0.8,0.4,0.8,1.4v5.5h2.8V5c0-3.5-1-5-3.6-5c-2.5,0-3.7,1.5-3.7,5v0.8c0,7.4,4.4,12.4,4.4,19.3v1.5
					c0,1-0.3,1.4-0.8,1.4c-0.5,0-0.8-0.4-0.8-1.4v-5.5h-2.8v4.6C123.7,29.2,124.7,30.7,127.3,30.7 M140.5,0.3h-7.5v2.7h2.4v27.5h2.8
					V2.9h2.3L140.5,0.3z M145.6,27.7V15.1h2.6v-2.7h-2.6V2.9h2.8V0.3h-5.6v30.2h5.8v-2.7H145.6z M156.9,0.3l0.6,22.4h-0.2l-2.8-22.4
					h-3.5v30.2h2.8L153.2,8h0.2l2.8,22.4h3.5V0.3H156.9z M169.5,0.3h-7.5v2.7h2.4v27.5h2.8V2.9h2.3V0.3z M176.4,30.4h2.8l-1.9-29.3
					h-4.6l-1.9,29.2h2.6l0.6-12.4h1.8L176.4,30.4z M174.2,15.6l0.6-11.7h0.3l0.6,11.7H174.2z M186.7,0.3l-1.3,26.5H185l-1.2-26.5
					h-2.9l1.9,30.2h4.6l1.9-30.2H186.7z M194.5,27.7V15.1h2.6v-2.7h-2.6V2.9h2.8V0.3h-5.6v30.2h5.8v-2.7L194.5,27.7z M200,30.4h2.8
					V0.3H200V30.4z M209.5,30.7c2.5,0,3.7-1.5,3.7-5v-0.8c0-7.4-4.4-12.4-4.4-19.3V4.1c0-1,0.3-1.4,0.8-1.4c0.5,0,0.8,0.4,0.8,1.4
					v5.5h2.8V5c0-3.5-1-5-3.6-5c-2.5,0-3.7,1.5-3.7,5v0.8c0,7.4,4.4,12.4,4.4,19.3v1.5c0,1-0.3,1.4-0.8,1.4c-0.5,0-0.8-0.4-0.8-1.4
					v-5.5h-2.8v4.6C205.9,29.2,206.9,30.7,209.5,30.7"/>
			</g>
			<g id="Grupo_248_1_" transform="translate(0.226 336.3)">
				<path id="Caminho_178_1_" class="st1" d="M3.4,0.3H0v30.2h3.3c2.8,0,4-1.5,4-4.8V5.1C7.3,1.7,6.3,0.3,3.4,0.3 M4.5,26.2
					c0,1.2-0.3,1.5-1.2,1.5H2.8V2.9h0.5c0.8,0,1.2,0.4,1.2,1.5V26.2z M13.3,27.7V15.1h2.6v-2.7h-2.6V2.9h2.8V0.3h-5.6v30.2h5.8v-2.7
					H13.3z M26.8,30.7c2.5,0,3.7-1.5,3.7-5v-0.8c0-7.4-4.4-12.4-4.4-19.3V4.1c0-1,0.3-1.4,0.8-1.4c0.5,0,0.8,0.4,0.8,1.4v5.5h2.8V5
					c0-3.5-1-5-3.6-5c-2.5,0-3.7,1.5-3.7,5v0.8c0,7.4,4.4,12.4,4.4,19.3v1.5c0,1-0.3,1.4-0.8,1.4c-0.5,0-0.8-0.4-0.8-1.4v-5.5h-2.8
					v4.6C23.2,29.2,24.2,30.7,26.8,30.7 M33.6,30.4h2.8V0.3h-2.8L33.6,30.4z M43.1,30.7c2.5,0,3.7-1.5,3.7-5v-0.8
					c0-7.4-4.4-12.4-4.4-19.3V4.1c0-1,0.3-1.4,0.8-1.4c0.5,0,0.8,0.4,0.8,1.4v5.5h2.8V5c0-3.5-1-5-3.6-5c-2.5,0-3.7,1.5-3.7,5v0.8
					c0,7.4,4.4,12.4,4.4,19.3v1.5c0,1-0.3,1.4-0.8,1.4c-0.5,0-0.8-0.4-0.8-1.4v-5.5h-2.8v4.6C39.5,29.2,40.5,30.7,43.1,30.7
					 M56.3,0.3h-7.5v2.7h2.4v27.5H54V2.9h2.3L56.3,0.3z M61.4,27.7V15.1H64v-2.7h-2.6V2.9h2.8V0.3h-5.6v30.2h5.8v-2.7H61.4z
					 M74.7,0.3l-1.5,18.5H73L71.5,0.3h-4.6v30.2h2.8L69.4,5.1h0.2l2.2,25.3h2.4l2.1-25.3h0.3l-0.3,25.3h2.8V0.3H74.7z M87.1,30.4
					h2.8L88,0.3h-4.6l-1.9,30.2h2.6l0.6-12.7h1.8L87.1,30.4z M84.9,15.2l0.6-12.1h0.3l0.6,12.1H84.9z M95.6,30.7
					c2.5,0,3.7-1.5,3.7-5v-0.8c0-7.4-4.4-12.4-4.4-19.3V4.1c0-1,0.3-1.4,0.8-1.4c0.5,0,0.8,0.4,0.8,1.4v5.5h2.8V5c0-3.5-1-5-3.6-5
					C93.3,0,92,1.5,92,5v0.8c0,7.4,4.4,12.4,4.4,19.3v1.5c0,1-0.3,1.4-0.8,1.4c-0.5,0-0.8-0.4-0.8-1.4v-5.5H92v4.6
					C92,29.2,93.1,30.7,95.6,30.7 M112.9,30.4h2.8l-1.9-30.2h-4.6l-1.9,30.2h2.6l0.6-12.7h1.8L112.9,30.4z M110.7,15.2l0.6-12.1h0.3
					l0.6,12.1H110.7z M120.9,27.7V0.3h-2.8v30.2h5.2v-2.7H120.9z M125.6,30.4h2.8V0.3h-2.8V30.4z M139.6,0.3l-1.5,18.5h-0.2
					l-1.5-18.5h-4.6v30.2h2.8l-0.3-25.3h0.2l2.2,25.3h2.4l2.1-25.3h0.3l-0.3,25.3h2.8V0.3H139.6z M150.1,27.7V15.1h2.6v-2.7h-2.6
					V2.9h2.8V0.3h-5.6v30.2h5.8v-2.7H150.1z M161.4,0.3l0.6,22.4h-0.2l-2.8-22.4h-3.5v30.2h2.8L157.7,8h0.2l2.8,22.4h3.5V0.3H161.4z
					 M174,0.3h-7.5v2.7h2.4v27.5h2.8V2.9h2.3L174,0.3z M181,30.4h2.8l-1.9-30.2h-4.6l-1.9,30.2h2.6l0.6-12.7h1.8L181,30.4z
					 M178.7,15.2l0.6-12.1h0.3l0.6,12.1H178.7z M194.6,30.4l-2.3-19.1c0.8-1.1,1.2-2.4,1.1-3.7V5.1c0-3.4-1.1-4.8-3.9-4.8h-3.4v30.2
					h2.8v-18h0.7l2,18L194.6,30.4z M189,10V2.9h0.5c0.8,0,1.2,0.4,1.2,1.5v4c0,1.1-0.3,1.5-1.2,1.5L189,10z M199.7,27.7V15.1h2.6
					v-2.7h-2.6V2.9h2.8V0.3h-5.6v30.2h5.8v-2.7L199.7,27.7z M208.5,30.7c2.5,0,3.7-1.5,3.7-5v-0.8c0-7.4-4.4-12.4-4.4-19.3V4.1
					c0-1,0.3-1.4,0.8-1.4c0.5,0,0.8,0.4,0.8,1.4v5.5h2.8V5c0-3.5-1-5-3.6-5c-2.5,0-3.7,1.5-3.7,5v0.8c0,7.4,4.4,12.4,4.4,19.3v1.5
					c0,1-0.3,1.4-0.8,1.4c-0.5,0-0.8-0.4-0.8-1.4v-5.5h-2.8v4.6C204.9,29.2,206,30.7,208.5,30.7"/>
			</g>
			<g id="Grupo_249_1_" transform="translate(0.628 5.167)">
				<path id="Caminho_179_1_" class="st2" d="M13.6,102.5c9.5,0,14.1-5.5,14.1-19V50.6H15.6v36.9c0,2.3-0.6,3-1.7,3s-1.7-0.8-1.7-3
					V14.9c0-2.3,0.6-3,1.7-3s1.7,0.8,1.7,3v28.1h12.2V19C27.8,5.5,24,0,14.1,0C4.6,0,0,5.5,0,19v64.5C0,96.9,3.8,102.5,13.6,102.5
					 M49.2,101.5h12.1L55.4,1H35.7l-5.8,100.5h11.3l1.6-38.9h5L49.2,101.5z M43.2,51.2l1.6-37.7h1.1l1.5,37.7L43.2,51.2z M87.1,1
					H60.3v11.9h7.3v88.5h12.2V12.9h7.3V1z M102.3,89.5V52.7h8.3V40.8h-8.3V12.9h8.9V1H90.1v100.5h21.7V89.5H102.3z M129.4,1h-13.6
					v100.5h13.2c10,0,14.6-5.5,14.6-17.7V18.7C143.5,6.5,139.7,1,129.4,1 M131.3,86.5c0,2.3-0.6,3-2.2,3h-1.2V12.9h1.2
					c1.6,0,2.2,0.8,2.2,3V86.5z M181.5,101.5l-7.1-63.5c1.6-2.9,2.3-6.7,2.3-11.7v-7.5C176.8,6.5,173,1,162.6,1H149v100.5h12.2V44
					h1.5l5.7,57.5H181.5z M161.2,12.9h1.2c1.6,0,2.2,0.8,2.2,3v14.3c0,2.3-0.6,3-2.2,3h-1.2V12.9z M200.5,101.5h12.1L206.7,1H187
					l-5.8,100.5h11.3l1.6-38.9h5L200.5,101.5z M194.5,51.2l1.6-37.7h1.1l1.5,37.7H194.5z"/>
			</g>
		</g>
	</g>
	<g id="Grupo_251_1_" transform="translate(36.36 -481.024)">
		<path id="Caminho_181_1_" class="st2" d="M21,0L0,3.7l0.2,1.4l21-3.7L21,0z"/>
	</g>
	<g>
		<g id="Grupo_253_1_" transform="translate(0 -481.024)">
			<g id="Grupo_252_1_" transform="translate(0 112.809)">
				<path id="Caminho_182_1_" class="st2" d="M13,102.5c9.4,0,14-5.5,14-19V1H14.9v86.5c0,2.3-0.6,3-1.7,3s-1.7-0.8-1.7-3V58.8H0
					v24.7C0,96.9,3.7,102.5,13,102.5 M44.1,102.5c9.4,0,14-5.5,14-19V19c0-13.4-3.7-19-13.5-19c-9.4,0-14,5.5-14,19v64.5
					C30.6,96.9,34.4,102.5,44.1,102.5 M44.4,90.5c-1.1,0-1.7-0.8-1.7-3V14.9c0-2.3,0.6-3,1.7-3c1.1,0,1.7,0.8,1.7,3v72.6
					C46.1,89.8,45.5,90.5,44.4,90.5 M75,102.5c9.4,0,14-5.5,14-19v-2.3c0-24.5-15.4-39.1-15.4-60.9v-5.4c0-2.3,0.6-3,1.7-3
					c1.1,0,1.7,0.8,1.7,3v16.2H89V19C89,5.5,85.2,0,75.5,0c-9.4,0-14,5.5-14,19v2.3c0,24.5,15.4,39.1,15.4,60.9v5.4
					c0,2.3-0.6,3-1.7,3c-1.1,0-1.7-0.8-1.7-3V71.3H61.5v12.2C61.5,97,65.2,102.5,75,102.5 M105.8,102.5c9.4,0,14-5.5,14-19V1h-12
					v86.5c0,2.3-0.6,3-1.7,3s-1.7-0.8-1.7-3V1H92.3v82.5C92.3,97,96.1,102.5,105.8,102.5"/>
			</g>
		</g>
	</g>
	<g id="Grupo_254_1_" transform="translate(125.047 -373.301)">
		<path id="Caminho_184_1_" class="st2" d="M0,3.7l0.2,1.4l21-3.7L21,0L0,3.7z"/>
	</g>
	<g id="Grupo_255_1_" transform="translate(124.836 -367.21)">
		<path id="Caminho_185_1_" class="st2" d="M12.1,88.5V51.7h8.2V39.8h-8.2V11.9h8.8V0H0v100.5h21.5V88.5H12.1z"/>
	</g>
	<g>
		<g id="Grupo_259_1_" transform="translate(0 -481.024)">
			<g id="Grupo_256_1_" transform="translate(159.01 113.813)">
				<path id="Caminho_186_1_" class="st2" d="M13.5,0H0v100.5h13c9.9,0,14.5-5.5,14.5-17.7V17.7C27.5,5.5,23.7,0,13.5,0 M15.4,85.5
					c0,2.3-0.6,3-2.2,3h-1.2V11.9h1.2c1.6,0,2.2,0.8,2.2,3L15.4,85.5z M43.8,88.5V51.7H52V39.8h-8.2V11.9h8.8V0H31.7v100.5h21.5
					V88.5H43.8z"/>
			</g>
			<g id="Grupo_257_1_" transform="translate(0.828 219.523)">
				<path id="Caminho_187_1_" class="st2" d="M14.8,103.4c10.3,0,15.3-5.6,15.3-19.1V51.1H16.9v37.3c0,2.3-0.7,3-1.8,3
					s-1.8-0.8-1.8-3V15.1c0-2.3,0.7-3,1.8-3s1.8,0.8,1.8,3v28.4h13.2V19.1C30.1,5.6,26,0,15.3,0C5,0,0,5.6,0,19.1v65.1
					C0,97.8,4.1,103.4,14.8,103.4 M54.6,102.4h13L61.3,1H39.9l-6.3,101.4h12.3l1.7-39.3H53L54.6,102.4z M48.1,51.7l1.7-38H51l1.6,38
					L48.1,51.7z M86.3,103.4c10.3,0,15.3-5.6,15.3-19.1V82c0-24.7-16.9-39.4-16.9-61.5v-5.4c0-2.3,0.7-3,1.8-3s1.8,0.8,1.8,3v16.3
					h13.2V19.1C101.6,5.6,97.5,0,86.9,0C76.6,0,71.6,5.6,71.6,19.1v2.3c0,24.7,16.9,39.4,16.9,61.5v5.4c0,2.3-0.7,3-1.8,3
					s-1.8-0.8-1.8-3V72H71.6v12.3C71.6,97.8,75.7,103.4,86.3,103.4 M138.3,1h-33v12h9.9v89.3h13.2V13.1h9.9L138.3,1z"/>
			</g>
			<g id="Grupo_258_1_" transform="translate(143.642 219.523)">
				<path id="Caminho_188_1_" class="st2" d="M35.2,102.4l-7.6-64.1c1.7-2.9,2.5-6.7,2.5-11.8v-7.6C30,6.6,26,1,14.8,1H0v101.4h13.2
					v-58h1.6l6.2,58H35.2z M13.2,13.1h1.3c1.7,0,2.4,0.8,2.4,3v14.4c0,2.3-0.7,3-2.4,3h-1.3V13.1z M53.2,103.4
					c10.3,0,15.3-5.6,15.3-19.1V19.1C68.5,5.6,64.4,0,53.8,0C43.5,0,38.5,5.6,38.5,19.1v65.1C38.5,97.8,42.6,103.4,53.2,103.4
					 M53.5,91.4c-1.2,0-1.8-0.8-1.8-3V15.1c0-2.3,0.7-3,1.8-3s1.8,0.8,1.8,3v73.3C55.4,90.6,54.7,91.4,53.5,91.4"/>
			</g>
		</g>
	</g>
</g>
</svg>
